<svg xmlns="http://www.w3.org/2000/svg" viewBox="0 0 785.04 750"><defs><style>.cls-1{fill:#f83460;}</style></defs><title>Layer 1</title><g id="Layer_2" data-name="Layer 2"><g id="Layer_1-2" data-name="Layer 1"><path class="cls-1" d="M231.07,73.77c-248.65,235.1-238.2,300.63-226,321,12.82,21.39,56.68,41.47,95,37,34.45-4,42.52-25.33,85-31,13-1.73,57.45-7.67,79,17,28.23,32.31-1.21,96.14-4,102-35.53,74.78-106.93,74-111,115-4.36,44,72.15,101.75,146,113,102.52,15.6,222-55.15,242-67,23.26-13.78,53.47-34.41,82-24,34.26,12.49,35.54,58.57,47,59,37.78,1.4,241.64-491.19,10-662C565.2-28,386.22-12.68,231.07,73.77Z"/></g></g></svg>